<svg width="126" height="34" viewBox="0 0 126 34" fill="none" xmlns="http://www.w3.org/2000/svg">
<path d="M40.4326 16.1488C40.4326 14.8723 40.714 13.7322 41.2768 12.7283C41.8518 11.7121 42.6287 10.9252 43.6075 10.3675C44.5985 9.79741 45.7057 9.51238 46.9291 9.51238C48.3606 9.51238 49.6146 9.88416 50.6912 10.6277C51.7679 11.3713 52.5203 12.3999 52.9485 13.7136H49.9939C49.7002 13.0939 49.2843 12.6292 48.7459 12.3194C48.2199 12.0096 47.6081 11.8546 46.9108 11.8546C46.1645 11.8546 45.4977 12.0343 44.9104 12.3937C44.3354 12.7407 43.8827 13.2364 43.5524 13.8809C43.2343 14.5253 43.0753 15.2813 43.0753 16.1488C43.0753 17.0039 43.2343 17.7599 43.5524 18.4167C43.8827 19.0611 44.3354 19.563 44.9104 19.9224C45.4977 20.2694 46.1645 20.4429 46.9108 20.4429C47.6081 20.4429 48.2199 20.288 48.7459 19.9782C49.2843 19.656 49.7002 19.1851 49.9939 18.5654H52.9485C52.5203 19.8914 51.7679 20.9263 50.6912 21.6698C49.6268 22.401 48.3728 22.7666 46.9291 22.7666C45.7057 22.7666 44.5985 22.4878 43.6075 21.9301C42.6287 21.36 41.8518 20.5731 41.2768 19.5692C40.714 18.5654 40.4326 17.4253 40.4326 16.1488Z" fill="#56B280"/>
<path d="M54.4823 17.4686C54.4823 16.4276 54.6842 15.5044 55.0879 14.6988C55.5039 13.8933 56.0605 13.2736 56.7579 12.8399C57.4675 12.4061 58.2566 12.1892 59.1253 12.1892C59.8838 12.1892 60.5445 12.3442 61.1073 12.654C61.6823 12.9638 62.1411 13.3542 62.4836 13.8251V12.3566H65.0712V22.6551H62.4836V21.1493C62.1533 21.6327 61.6945 22.0354 61.1073 22.3576C60.5322 22.6675 59.8655 22.8224 59.1069 22.8224C58.2505 22.8224 57.4675 22.5993 56.7579 22.1532C56.0605 21.707 55.5039 21.0812 55.0879 20.2756C54.6842 19.4577 54.4823 18.522 54.4823 17.4686ZM62.4836 17.5058C62.4836 16.8738 62.3613 16.3347 62.1166 15.8885C61.8719 15.43 61.5416 15.083 61.1256 14.8475C60.7096 14.5997 60.2631 14.4757 59.7859 14.4757C59.3088 14.4757 58.8683 14.5935 58.4646 14.8289C58.0609 15.0644 57.7305 15.4114 57.4736 15.8699C57.2289 16.3161 57.1066 16.849 57.1066 17.4686C57.1066 18.0883 57.2289 18.6336 57.4736 19.1045C57.7305 19.563 58.0609 19.9162 58.4646 20.1641C58.8806 20.412 59.321 20.5359 59.7859 20.5359C60.2631 20.5359 60.7096 20.4181 61.1256 20.1827C61.5416 19.9348 61.8719 19.5878 62.1166 19.1417C62.3613 18.6831 62.4836 18.1378 62.4836 17.5058Z" fill="#56B280"/>
<path d="M73.2145 12.2078C74.4257 12.2078 75.4045 12.5982 76.1508 13.379C76.8971 14.1473 77.2702 15.2255 77.2702 16.6135V22.6551H74.701V16.9667C74.701 16.1488 74.4991 15.5229 74.0954 15.0892C73.6917 14.643 73.1411 14.42 72.4437 14.42C71.7341 14.42 71.1714 14.643 70.7554 15.0892C70.3516 15.5229 70.1498 16.1488 70.1498 16.9667V22.6551H67.5805V12.3566H70.1498V13.6392C70.4923 13.1931 70.9267 12.8461 71.4527 12.5982C71.9911 12.338 72.5783 12.2078 73.2145 12.2078Z" fill="#56B280"/>
<path d="M79.0528 17.4686C79.0528 16.4276 79.2547 15.5044 79.6584 14.6988C80.0744 13.8933 80.6372 13.2736 81.3468 12.8399C82.0564 12.4061 82.8455 12.1892 83.7141 12.1892C84.3748 12.1892 85.0049 12.338 85.6044 12.6354C86.2038 12.9204 86.681 13.3046 87.0358 13.7879V8.89893H89.6417V22.6551H87.0358V21.1307C86.7177 21.6389 86.2711 22.0478 85.6961 22.3576C85.1211 22.6675 84.4543 22.8224 83.6958 22.8224C82.8394 22.8224 82.0564 22.5993 81.3468 22.1532C80.6372 21.707 80.0744 21.0812 79.6584 20.2756C79.2547 19.4577 79.0528 18.522 79.0528 17.4686ZM87.0541 17.5058C87.0541 16.8738 86.9318 16.3347 86.6871 15.8885C86.4424 15.43 86.1121 15.083 85.6961 14.8475C85.2801 14.5997 84.8336 14.4757 84.3564 14.4757C83.8793 14.4757 83.4389 14.5935 83.0351 14.8289C82.6314 15.0644 82.301 15.4114 82.0441 15.8699C81.7994 16.3161 81.6771 16.849 81.6771 17.4686C81.6771 18.0883 81.7994 18.6336 82.0441 19.1045C82.301 19.563 82.6314 19.9162 83.0351 20.1641C83.4511 20.412 83.8915 20.5359 84.3564 20.5359C84.8336 20.5359 85.2801 20.4181 85.6961 20.1827C86.1121 19.9348 86.4424 19.5878 86.6871 19.1417C86.9318 18.6831 87.0541 18.1378 87.0541 17.5058Z" fill="#56B280"/>
<path d="M94.7203 8.89893V22.6551H92.151V8.89893H94.7203Z" fill="#56B280"/>
<path d="M106.71 17.2827C106.71 17.6545 106.685 17.9891 106.636 18.2866H99.204C99.2651 19.0301 99.5221 19.6126 99.9748 20.034C100.427 20.4553 100.984 20.666 101.645 20.666C102.599 20.666 103.278 20.2508 103.682 19.4205H106.453C106.159 20.412 105.596 21.2299 104.765 21.8743C103.933 22.5064 102.911 22.8224 101.7 22.8224C100.721 22.8224 99.8402 22.6055 99.0572 22.1717C98.2864 21.7256 97.6808 21.0998 97.2403 20.2942C96.8121 19.4887 96.598 18.5592 96.598 17.5058C96.598 16.44 96.8121 15.5044 97.2403 14.6988C97.6685 13.8933 98.268 13.2736 99.0388 12.8399C99.8096 12.4061 100.697 12.1892 101.7 12.1892C102.666 12.1892 103.529 12.3999 104.287 12.8213C105.058 13.2426 105.652 13.8437 106.068 14.6245C106.496 15.3928 106.71 16.2789 106.71 17.2827ZM104.049 16.5392C104.037 15.8699 103.798 15.337 103.333 14.9405C102.868 14.5315 102.299 14.327 101.626 14.327C100.99 14.327 100.452 14.5253 100.011 14.9219C99.5832 15.3061 99.3202 15.8452 99.2223 16.5392H104.049Z" fill="#56B280"/>
<path d="M107.924 17.4686C107.924 16.4276 108.126 15.5044 108.53 14.6988C108.946 13.8933 109.503 13.2736 110.2 12.8399C110.91 12.4061 111.699 12.1892 112.567 12.1892C113.326 12.1892 113.987 12.3442 114.549 12.654C115.124 12.9638 115.583 13.3542 115.926 13.8251V12.3566H118.513V22.6551H115.926V21.1493C115.595 21.6327 115.137 22.0354 114.549 22.3576C113.974 22.6675 113.308 22.8224 112.549 22.8224C111.693 22.8224 110.91 22.5993 110.2 22.1532C109.503 21.707 108.946 21.0812 108.53 20.2756C108.126 19.4577 107.924 18.522 107.924 17.4686ZM115.926 17.5058C115.926 16.8738 115.803 16.3347 115.559 15.8885C115.314 15.43 114.984 15.083 114.568 14.8475C114.152 14.5997 113.705 14.4757 113.228 14.4757C112.751 14.4757 112.311 14.5935 111.907 14.8289C111.503 15.0644 111.173 15.4114 110.916 15.8699C110.671 16.3161 110.549 16.849 110.549 17.4686C110.549 18.0883 110.671 18.6336 110.916 19.1045C111.173 19.563 111.503 19.9162 111.907 20.1641C112.323 20.412 112.763 20.5359 113.228 20.5359C113.705 20.5359 114.152 20.4181 114.568 20.1827C114.984 19.9348 115.314 19.5878 115.559 19.1417C115.803 18.6831 115.926 18.1378 115.926 17.5058Z" fill="#56B280"/>
<path d="M125.684 14.4943H123.904V22.6551H121.298V14.4943H120.142V12.3566H121.298V11.836C121.298 10.572 121.653 9.6425 122.362 9.04764C123.072 8.45278 124.143 8.17394 125.574 8.21112V10.4047C124.95 10.3923 124.516 10.4976 124.271 10.7207C124.026 10.9438 123.904 11.3465 123.904 11.929V12.3566H125.684V14.4943Z" fill="#56B280"/>
<g clip-path="url(#clip0_1773_321)">
<mask id="mask0_1773_321" style="mask-type:alpha" maskUnits="userSpaceOnUse" x="0" y="0" width="35" height="34">
<circle cx="17.2926" cy="16.9764" r="16.8067" fill="#F578A5"/>
</mask>
<g mask="url(#mask0_1773_321)">
<circle cx="17.2926" cy="16.9764" r="16.8067" fill="#56B280"/>
<path d="M9.56204 33.5396V33.9072H9.92969H25.5185H25.8862V33.5396V26.9985C25.8862 26.3977 25.41 25.905 24.8095 25.8846L10.7146 25.4041C10.0845 25.3826 9.56204 25.8876 9.56204 26.518V33.5396Z" fill="white" stroke="white" stroke-width="0.735294"/>
<g clip-path="url(#clip1_1773_321)">
<path d="M12.8 11.9714C16.2251 7.20908 14.7518 3.33276 14.7559 3.32816C14.6833 3.13403 14.7818 2.91784 14.976 2.84521C15.0739 2.80858 15.1826 2.81449 15.276 2.86146C21.4577 5.81945 24.1178 9.63796 24.6273 13.0903C24.8298 14.4316 24.7032 15.8021 24.2584 17.0836C23.8508 18.2661 23.1719 19.3367 22.2761 20.2096C20.553 21.8737 18.1449 22.6408 15.7682 21.8632C15.1602 21.6648 14.5865 21.3738 14.0674 21.0004C13.026 20.253 12.236 19.2069 11.802 18.0007C11.3416 16.7106 11.3269 15.3034 11.7605 14.0041C11.9999 13.2768 12.3506 12.5911 12.8 11.9714Z" fill="white"/>
<path d="M14.8312 3.45097C14.6807 3.30856 14.674 3.07105 14.8164 2.92051C14.9588 2.76997 15.1964 2.76333 15.3469 2.90574C15.358 2.91622 15.3684 2.92735 15.3781 2.93911C15.3919 2.95152 18.3765 6.07999 18.8028 12.1266L18.8073 12.1834C18.8993 13.5966 18.8539 15.0155 18.6716 16.4199L20.7124 14.8559C20.8834 14.7387 21.1169 14.7823 21.2341 14.9532C21.3402 15.108 21.3157 15.3172 21.1768 15.4433L18.5097 17.481C17.9126 20.9914 15.8077 25.9575 18.5942 29.0657C18.7284 29.2236 18.7091 29.4604 18.5512 29.5946C18.4009 29.7224 18.1773 29.7119 18.0396 29.5707C14.6982 25.8463 17.1296 21.2324 17.795 17.2426L17.8037 17.1866C18.0743 15.5989 18.167 13.9859 18.0802 12.3777L15.6814 10.6201C15.5103 10.5031 15.4664 10.2696 15.5833 10.0985C15.7003 9.92738 15.9338 9.88349 16.1049 10.0004C16.112 10.0053 16.1189 10.0104 16.1256 10.0157L17.9843 11.3841C17.4045 6.14257 14.8421 3.46354 14.8312 3.45097Z" fill="#56B280"/>
</g>
</g>
</g>
<defs>
<clipPath id="clip0_1773_321">
<rect width="33.6134" height="33.6134" fill="white" transform="translate(0.48584 0.169643)"/>
</clipPath>
<clipPath id="clip1_1773_321">
<rect width="20.6274" height="20.6274" fill="white" transform="translate(2.46729 16.6356) rotate(-48)"/>
</clipPath>
</defs>
</svg>
