<svg width="10" height="6" viewBox="0 0 10 6" fill="none" xmlns="http://www.w3.org/2000/svg">
<path d="M0.939832 0.815475C0.980472 0.774732 1.02875 0.742407 1.0819 0.720351C1.13506 0.698296 1.19204 0.686943 1.24958 0.686943C1.30713 0.686943 1.36411 0.698296 1.41726 0.720351C1.47038 0.742395 1.51864 0.774697 1.55927 0.815408L1.55923 0.815371L1.47084 0.903744L1.55933 0.815475L0.939832 0.815475ZM0.939832 0.815475L1.02833 0.903751L0.939832 0.815475ZM5.11935 5.1642L5.16726 5.27965C5.11411 5.30171 5.05713 5.31306 4.99958 5.31306C4.94204 5.31306 4.88505 5.30171 4.8319 5.27965C4.7788 5.25762 4.73056 5.22533 4.68994 5.18464C4.68991 5.1846 4.68987 5.18456 4.68983 5.18453L0.940056 1.43475C0.940031 1.43473 0.940006 1.4347 0.939981 1.43468L5.11935 5.1642ZM5.11935 5.1642L5.16726 5.27965C5.22036 5.25762 5.2686 5.22533 5.30922 5.18464L5.11935 5.1642ZM8.43994 0.815371L4.99958 4.25633L5.30933 5.18453L9.05922 1.43464C9.09988 1.39398 9.13214 1.34571 9.15415 1.29258C9.17615 1.23945 9.18748 1.18251 9.18748 1.125C9.18748 1.0675 9.17615 1.01056 9.15415 0.957427C9.13214 0.904297 9.09988 0.856025 9.05922 0.815364C9.01856 0.774701 8.97029 0.742446 8.91716 0.72044C8.86403 0.698433 8.80709 0.687107 8.74958 0.687107C8.69208 0.687107 8.63514 0.698433 8.58201 0.720439L8.62984 0.835924L8.58201 0.72044C8.52888 0.742446 8.48061 0.774701 8.43994 0.815364L8.43994 0.815371Z" fill="#272727" stroke="#272727" stroke-width="0.25"/>
</svg>
